:SAMPLES-PER-SECOND 30
:FULLY-SPECIFIED
:DEGREES
109
root  -30.9683 38.918 -7.23832 -156.703 -87.3408 150.045
RightUpLeg  21.737 -12.1545 -9.29059
RightLeg  21.3664 7.29571 2.86299
RightFoot  -16.7446 0.24898 8.05728
RightToes  4.07452e-010 0 -3.6325e-017
Spine  0.78646 2.43717 5.18385
Spine1  12.556 4.42801 -5.7836
HEad  -13.2533 2.52147 -2.26539
LeftShoulder1  8.14876 -11.4062 -47.6926
LeftArm  -5.1443 33.3454 -21.4652
LeftForeArm  26.8928 -7.61454 -5.92156
LeftHand  -0.244104 0.0205437 5.32207
RightShoulder  6.82835 10.5162 42.4084
RightArm  8.47102 4.83526 37.3609
RightForeArm  11.6629 40.7982 8.92362
RightHand  -0.575131 0.245327 -11.8834
LeftUpLeg  -19.9606 15.9192 -6.37899
LeftLeg  16.0325 5.37774 1.44565
LeftFoot  8.01365 -1.5249 8.6966
LeftToes  1.0186e-010 1.09309e-010 2.97394e-011
110
root  -32.4614 39.0174 -7.09119 -137.748 -86.2786 130.697
RightUpLeg  18.5045 -9.1689 -10.4282
RightLeg  30.3681 4.98274 2.87723
RightFoot  -9.74033 -0.225277 11.5857
RightToes  4.07452e-010 0 -3.6325e-017
Spine  1.25264 2.48571 3.07741
Spine1  11.9683 4.54143 -6.0679
HEad  -13.5954 2.3823 -1.48478
LeftShoulder1  8.21564 -11.4467 -47.9576
LeftArm  -5.79404 32.938 -21.9147
LeftForeArm  25.9367 -7.61542 -5.77893
LeftHand  -0.244104 0.0205437 5.32207
RightShoulder  6.99425 10.5329 43.4492
RightArm  8.38794 3.35761 37.6124
RightForeArm  9.70169 36.2138 7.65243
RightHand  -0.769636 1.29266 -13.4868
LeftUpLeg  -18.8695 16.4761 -7.90994
LeftLeg  19.4495 5.04743 2.39246
LeftFoot  4.69826 -1.31164 9.04086
LeftToes  1.0186e-010 1.09309e-010 2.97394e-011
111
root  -33.7502 39.2458 -6.89627 -139.281 -84.6605 132.045
RightUpLeg  12.1247 -6.1156 -10.9062
RightLeg  41.7972 1.9138 1.50002
RightFoot  -0.262886 -1.12256 11.7191
RightToes  4.07452e-010 0 -3.6325e-017
Spine  2.14756 2.6117 2.70071
Spine1  11.1055 5.00952 -7.68643
HEad  -13.9095 2.4671 -1.58153
LeftShoulder1  8.33909 -11.6113 -48.1515
LeftArm  -6.58319 31.4987 -22.8688
LeftForeArm  25.6966 -8.01571 -5.66992
LeftHand  -0.244104 0.0205437 5.32207
RightShoulder  7.01779 10.5672 43.4912
RightArm  9.9708 2.03455 38.7837
RightForeArm  5.60375 29.6359 6.07616
RightHand  -0.894601 1.86488 -14.4548
LeftUpLeg  -16.533 17.371 -8.50422
LeftLeg  20.1893 5.59631 2.63203
LeftFoot  0.760987 -0.84976 7.96647
LeftToes  1.0186e-010 1.09309e-010 2.97394e-011
112
root  -34.9342 39.516 -6.70017 -147.206 -82.7069 139.769
RightUpLeg  4.92256 -3.12958 -10.9093
RightLeg  52.2722 -1.02812 -1.81271
RightFoot  5.48298 -1.33427 9.22955
RightToes  4.07452e-010 0 -3.6325e-017
Spine  2.92175 2.76259 2.49744
Spine1  10.6318 5.25835 -8.78283
HEad  -13.9049 3.13075 -2.63703
LeftShoulder1  8.45376 -11.7119 -48.4948
LeftArm  -7.32413 29.643 -24.2699
LeftForeArm  25.5017 -9.49569 -5.57527
LeftHand  -0.244104 0.0205437 5.32207
RightShoulder  7.0014 10.6648 43.0675
RightArm  13.6723 1.4579 39.7474
RightForeArm  1.51858 22.4581 5.24516
RightHand  -0.881127 1.81924 -14.3131
LeftUpLeg  -13.5215 19.0609 -8.4484
LeftLeg  19.1526 6.0379 2.2366
LeftFoot  -1.06809 -0.640561 7.20263
LeftToes  1.0186e-010 1.09309e-010 2.97394e-011
113
root  -36.1318 39.9056 -6.52593 -153.68 -81.5762 145.89
RightUpLeg  -1.19466 -1.49826 -10.3142
RightLeg  59.334 -2.88697 -5.68204
RightFoot  5.93532 -0.889647 6.07062
RightToes  4.07452e-010 0 -3.6325e-017
Spine  3.33741 2.39766 2.14776
Spine1  10.4823 4.68936 -8.18599
HEad  -13.7453 4.25221 -3.90274
LeftShoulder1  8.55629 -11.7408 -48.9923
LeftArm  -7.12999 27.2776 -25.5933
LeftForeArm  24.6342 -11.8861 -5.45771
LeftHand  -0.244104 0.0205437 5.32207
RightShoulder  7.05214 10.8139 42.9189
RightArm  13.2881 1.19335 39.4148
RightForeArm  5.2598 16.1674 6.98097
RightHand  -0.817591 1.53874 -13.8223
LeftUpLeg  -9.43522 17.4469 -6.86273
LeftLeg  16.7944 9.14671 0.934986
LeftFoot  -1.4995 -0.575878 6.78801
LeftToes  1.0186e-010 1.09309e-010 2.97394e-011
114
root  -37.284 40.3277 -6.37643 -158.26 -81.7722 150.28
RightUpLeg  -6.42921 -1.47354 -9.2061
RightLeg  62.4579 -3.48305 -7.74494
RightFoot  4.18099 -0.558885 4.32333
RightToes  4.07452e-010 0 -3.6325e-017
Spine  3.65895 1.52224 1.90434
Spine1  10.3051 3.45125 -6.756
HEad  -13.5971 5.33401 -4.55718
LeftShoulder1  8.65293 -11.8112 -49.3188
LeftArm  -5.56012 24.1576 -26.5012
LeftForeArm  23.3269 -14.5532 -5.22215
LeftHand  -0.244104 0.0205437 5.32207
RightShoulder  7.07481 10.8499 42.9509
RightArm  9.82859 0.0195951 38.1195
RightForeArm  12.9987 12.2437 8.46267
RightHand  -0.811895 1.41915 -13.9554
LeftUpLeg  -5.3141 13.485 -5.04251
LeftLeg  13.7067 13.1843 -0.724601
LeftFoot  -2.14052 -0.474794 6.04752
LeftToes  1.0186e-010 1.09309e-010 2.97394e-011
